<svg width="16" height="21" viewBox="0 0 16 21" fill="none" xmlns="http://www.w3.org/2000/svg">
<path d="M10.3658 4.02336C11.3742 4.02336 12.1992 3.19836 12.1992 2.19002C12.1992 1.18169 11.3742 0.356689 10.3658 0.356689C9.3575 0.356689 8.5325 1.18169 8.5325 2.19002C8.5325 3.19836 9.3575 4.02336 10.3658 4.02336ZM7.46 15.0234L7.9825 12.7317L9.9075 14.565V19.1484C9.9075 19.6525 10.32 20.065 10.8242 20.065C11.3283 20.065 11.7408 19.6525 11.7408 19.1484V13.9784C11.7408 13.4742 11.5392 12.9975 11.1725 12.6492L9.81583 11.3567L10.3658 8.60669C11.3988 9.78764 12.813 10.5693 14.3625 10.8159C14.9125 10.8984 15.4075 10.4584 15.4075 9.89919C15.4075 9.45002 15.0775 9.07419 14.6283 9.00086C13.235 8.77169 12.08 7.94669 11.4658 6.86502L10.5492 5.39836C10.1825 4.84836 9.6325 4.48169 8.99083 4.48169C8.71583 4.48169 8.5325 4.57336 8.2575 4.57336L4.60916 6.11336C4.27707 6.25531 3.99401 6.49173 3.79518 6.79323C3.59635 7.09474 3.49051 7.44803 3.49083 7.80919V9.98169C3.49083 10.4859 3.90333 10.8984 4.4075 10.8984C4.91166 10.8984 5.32416 10.4859 5.32416 9.98169V7.78169L6.97416 7.14002L5.5075 14.565L1.91416 13.8317C1.41916 13.7309 0.933329 14.0517 0.832496 14.5467V14.5834C0.731663 15.0784 1.0525 15.5642 1.5475 15.665L5.315 16.4167C5.78359 16.5097 6.26999 16.4161 6.67062 16.1559C7.07126 15.8956 7.35448 15.4893 7.46 15.0234Z" fill="white"/>
</svg>
