<svg width="18" height="25" viewBox="0 0 18 25" fill="none" xmlns="http://www.w3.org/2000/svg">
<path d="M11.7815 4.65116C13.0252 4.65116 14.0428 3.60465 14.0428 2.32558C14.0428 1.04651 13.0252 0 11.7815 0C10.5378 0 9.52022 1.04651 9.52022 2.32558C9.52022 3.60465 10.5378 4.65116 11.7815 4.65116ZM8.19737 18.6047L8.84183 15.6977L11.2162 18.0233V23.8372C11.2162 24.4767 11.725 25 12.3468 25C12.9687 25 13.4774 24.4767 13.4774 23.8372V17.2791C13.4774 16.6395 13.2287 16.0349 12.7765 15.593L11.1031 13.9535L11.7815 10.4651C13.0556 11.9632 14.7999 12.9547 16.7111 13.2674C17.3895 13.3721 18 12.814 18 12.1047C18 11.5349 17.593 11.0581 17.039 10.9651C15.3204 10.6744 13.8958 9.62791 13.1383 8.25581L12.0076 6.39535C11.5554 5.69767 10.877 5.23256 10.0855 5.23256C9.74634 5.23256 9.52022 5.34884 9.18102 5.34884L4.68109 7.30233C4.27147 7.48239 3.92234 7.78229 3.6771 8.16475C3.43186 8.5472 3.30132 8.99535 3.30171 9.45349V12.2093C3.30171 12.8488 3.81049 13.3721 4.43235 13.3721C5.0542 13.3721 5.56298 12.8488 5.56298 12.2093V9.4186L7.59813 8.60465L5.78911 18.0233L1.35701 17.093C0.746465 16.9651 0.147227 17.3721 0.0228569 18V18.0465C-0.101513 18.6744 0.29421 19.2907 0.904755 19.4186L5.55168 20.3721C6.12965 20.4901 6.72958 20.3714 7.22374 20.0413C7.71789 19.7111 8.06722 19.1957 8.19737 18.6047V18.6047Z" fill="white"/>
</svg>
