<svg width="25" height="20" viewBox="0 0 25 20" fill="none" xmlns="http://www.w3.org/2000/svg">
<path fill-rule="evenodd" clip-rule="evenodd" d="M7.85701 17.286C7.85701 17.0586 7.94732 16.8406 8.10807 16.6799C8.26881 16.5191 8.48683 16.4288 8.71416 16.4288H24.1429C24.3702 16.4288 24.5882 16.5191 24.7489 16.6799C24.9097 16.8406 25 17.0586 25 17.286C25 17.5133 24.9097 17.7313 24.7489 17.8921C24.5882 18.0528 24.3702 18.1431 24.1429 18.1431H8.71416C8.48683 18.1431 8.26881 18.0528 8.10807 17.8921C7.94732 17.7313 7.85701 17.5133 7.85701 17.286ZM7.85701 10.4288C7.85701 10.2014 7.94732 9.98341 8.10807 9.82267C8.26881 9.66192 8.48683 9.57161 8.71416 9.57161H24.1429C24.3702 9.57161 24.5882 9.66192 24.7489 9.82267C24.9097 9.98341 25 10.2014 25 10.4288C25 10.6561 24.9097 10.8741 24.7489 11.0349C24.5882 11.1956 24.3702 11.2859 24.1429 11.2859H8.71416C8.48683 11.2859 8.26881 11.1956 8.10807 11.0349C7.94732 10.8741 7.85701 10.6561 7.85701 10.4288ZM7.85701 3.57157C7.85701 3.34424 7.94732 3.12622 8.10807 2.96547C8.26881 2.80473 8.48683 2.71442 8.71416 2.71442H24.1429C24.3702 2.71442 24.5882 2.80473 24.7489 2.96547C24.9097 3.12622 25 3.34424 25 3.57157C25 3.7989 24.9097 4.01692 24.7489 4.17766C24.5882 4.33841 24.3702 4.42872 24.1429 4.42872H8.71416C8.48683 4.42872 8.26881 4.33841 8.10807 4.17766C7.94732 4.01692 7.85701 3.7989 7.85701 3.57157ZM5.89243 1.25041C5.97225 1.33003 6.03558 1.42462 6.07879 1.52875C6.122 1.63289 6.14424 1.74453 6.14424 1.85727C6.14424 1.97002 6.122 2.08165 6.07879 2.18579C6.03558 2.28992 5.97225 2.38451 5.89243 2.46413L3.32098 5.03558C3.24136 5.1154 3.14677 5.17873 3.04263 5.22195C2.9385 5.26516 2.82686 5.2874 2.71412 5.2874C2.60137 5.2874 2.48973 5.26516 2.3856 5.22195C2.28146 5.17873 2.18688 5.1154 2.10725 5.03558L1.2501 4.17843C1.17041 4.09874 1.10719 4.00413 1.06406 3.9C1.02093 3.79587 0.998734 3.68427 0.998734 3.57157C0.998734 3.45886 1.02093 3.34726 1.06406 3.24314C1.10719 3.13901 1.17041 3.0444 1.2501 2.96471C1.3298 2.88501 1.42441 2.8218 1.52853 2.77867C1.63266 2.73554 1.74426 2.71334 1.85697 2.71334C1.96967 2.71334 2.08127 2.73554 2.1854 2.77867C2.28952 2.8218 2.38413 2.88501 2.46383 2.96471L2.71412 3.21671L4.6787 1.25041C4.75832 1.17059 4.85291 1.10725 4.95705 1.06404C5.06118 1.02083 5.17282 0.998589 5.28556 0.998589C5.39831 0.998589 5.50995 1.02083 5.61408 1.06404C5.71822 1.10725 5.8128 1.17059 5.89243 1.25041V1.25041ZM5.89243 8.1076C5.97225 8.18722 6.03558 8.28181 6.07879 8.38595C6.122 8.49008 6.14424 8.60172 6.14424 8.71446C6.14424 8.82721 6.122 8.93885 6.07879 9.04298C6.03558 9.14712 5.97225 9.2417 5.89243 9.32133L3.32098 11.8928C3.24136 11.9726 3.14677 12.0359 3.04263 12.0791C2.9385 12.1224 2.82686 12.1446 2.71412 12.1446C2.60137 12.1446 2.48973 12.1224 2.3856 12.0791C2.28146 12.0359 2.18688 11.9726 2.10725 11.8928L1.2501 11.0356C1.08915 10.8747 0.998734 10.6564 0.998734 10.4288C0.998734 10.2011 1.08915 9.98285 1.2501 9.8219C1.41105 9.66095 1.62935 9.57053 1.85697 9.57053C2.08458 9.57053 2.30288 9.66095 2.46383 9.8219L2.71412 10.0739L4.6787 8.1076C4.75832 8.02778 4.85291 7.96445 4.95705 7.92124C5.06118 7.87803 5.17282 7.85578 5.28556 7.85578C5.39831 7.85578 5.50995 7.87803 5.61408 7.92124C5.71822 7.96445 5.8128 8.02778 5.89243 8.1076V8.1076ZM5.89243 14.9648C5.97225 15.0444 6.03558 15.139 6.07879 15.2431C6.122 15.3473 6.14424 15.4589 6.14424 15.5717C6.14424 15.6844 6.122 15.796 6.07879 15.9002C6.03558 16.0043 5.97225 16.0989 5.89243 16.1785L3.32098 18.75C3.24136 18.8298 3.14677 18.8931 3.04263 18.9363C2.9385 18.9795 2.82686 19.0018 2.71412 19.0018C2.60137 19.0018 2.48973 18.9795 2.3856 18.9363C2.28146 18.8931 2.18688 18.8298 2.10725 18.75L1.2501 17.8928C1.08915 17.7319 0.998734 17.5136 0.998734 17.286C0.998734 17.0583 1.08915 16.84 1.2501 16.6791C1.41105 16.5181 1.62935 16.4277 1.85697 16.4277C2.08458 16.4277 2.30288 16.5181 2.46383 16.6791L2.71412 16.9311L4.6787 14.9648C4.75832 14.885 4.85291 14.8216 4.95705 14.7784C5.06118 14.7352 5.17282 14.713 5.28556 14.713C5.39831 14.713 5.50995 14.7352 5.61408 14.7784C5.71822 14.8216 5.8128 14.885 5.89243 14.9648V14.9648Z" fill="white"/>
</svg>
