<svg width="14" height="16" viewBox="0 0 14 16" fill="none" xmlns="http://www.w3.org/2000/svg">
<path d="M8.99317 0.968001C9.11422 0.922479 9.21292 0.831827 9.26855 0.715081C9.32418 0.598334 9.33241 0.464573 9.29152 0.341887C9.25062 0.2192 9.16378 0.117131 9.04923 0.0571111C8.93468 -0.00290867 8.80132 -0.0162097 8.67717 0.0200007C7.73917 0.332001 7.15417 1.102 6.81117 1.927C6.76465 2.03851 6.72195 2.15157 6.68317 2.266C6.49615 1.9112 6.2568 1.58657 5.97317 1.303C5.58881 0.917807 5.12971 0.615307 4.62411 0.4141C4.11852 0.212893 3.57711 0.117233 3.03317 0.133001C2.45317 0.149001 1.99017 0.613001 1.97317 1.192C1.95741 1.73593 2.05307 2.27734 2.25427 2.78294C2.45548 3.28854 2.75798 3.74763 3.14317 4.132L3.17517 4.162C2.33517 4.34396 1.57606 4.79151 1.01019 5.43843C0.444317 6.08535 0.101746 6.89726 0.033174 7.754L0.027174 7.828C-0.104844 9.4752 0.246137 11.1252 1.03717 12.576L1.39617 13.234C1.40617 13.251 1.41617 13.268 1.42817 13.284L2.42817 14.686C2.65482 15.0034 2.94789 15.2676 3.28701 15.4603C3.62613 15.6529 4.00314 15.7694 4.39183 15.8016C4.78053 15.8337 5.17156 15.7808 5.53773 15.6466C5.90391 15.5123 6.23643 15.2998 6.51217 15.024C6.55452 14.9816 6.6048 14.948 6.66013 14.9251C6.71547 14.9022 6.77478 14.8904 6.83467 14.8904C6.89457 14.8904 6.95388 14.9022 7.00922 14.9251C7.06455 14.948 7.11483 14.9816 7.15717 15.024C7.43292 15.2998 7.76544 15.5123 8.13162 15.6466C8.49779 15.7808 8.88882 15.8337 9.27751 15.8016C9.66621 15.7694 10.0432 15.6529 10.3823 15.4603C10.7215 15.2676 11.0145 15.0034 11.2412 14.686L12.2412 13.285C12.2532 13.2687 12.2642 13.2516 12.2742 13.234L12.6322 12.576C13.4236 11.1253 13.7749 9.4753 13.6432 7.828L13.6372 7.754C13.5929 7.20188 13.4344 6.66498 13.1718 6.1773C12.9092 5.68962 12.5482 5.26179 12.1117 4.92091C11.6751 4.58004 11.1725 4.33355 10.6357 4.19706C10.0989 4.06057 9.53955 4.03705 8.99317 4.128L7.33517 4.404C7.34517 3.723 7.46517 2.957 7.73317 2.311C8.01417 1.636 8.43017 1.156 8.99317 0.968001ZM3.74317 6.968C3.58983 7.01666 3.44763 7.09516 3.32475 7.19899C3.20187 7.30282 3.10074 7.42993 3.02717 7.573C2.84117 7.921 2.71517 8.495 2.83217 9.432C2.84862 9.56368 2.81208 9.6965 2.73059 9.80124C2.64911 9.90598 2.52935 9.97406 2.39767 9.9905C2.26599 10.0069 2.13318 9.9704 2.02844 9.88892C1.9237 9.80744 1.85562 9.68768 1.83917 9.556C1.70717 8.492 1.83017 7.691 2.14517 7.102C2.46517 6.502 2.95217 6.178 3.42717 6.019C3.55302 5.97696 3.69041 5.98664 3.80912 6.0459C3.92783 6.10516 4.01814 6.20916 4.06017 6.335C4.10221 6.46085 4.09253 6.59824 4.03327 6.71695C3.97401 6.83566 3.87002 6.92596 3.74417 6.968H3.74317Z" fill="white"/>
</svg>
