<svg width="15" height="15" viewBox="0 0 15 15" fill="none" xmlns="http://www.w3.org/2000/svg">
<path d="M15 6.74669V13.7828C14.9994 14.0025 14.9382 14.2179 14.8228 14.4066C14.7073 14.5953 14.5419 14.7503 14.3438 14.8554C14.1621 14.9529 13.9574 15.0027 13.75 14.9999H10C9.83424 14.9999 9.67527 14.9358 9.55806 14.8217C9.44085 14.7075 9.37501 14.5527 9.37501 14.3914V10.7402C9.37501 10.5788 9.30916 10.424 9.19195 10.3099C9.07474 10.1958 8.91577 10.1316 8.75001 10.1316H6.25001C6.08425 10.1316 5.92528 10.1958 5.80807 10.3099C5.69086 10.424 5.62501 10.5788 5.62501 10.7402V14.3914C5.62501 14.5527 5.55916 14.7075 5.44195 14.8217C5.32474 14.9358 5.16577 14.9999 5.00001 14.9999H1.25001C1.07269 15.0005 0.897279 14.9642 0.735573 14.8934C0.573867 14.8225 0.429615 14.7188 0.312515 14.5891C0.109309 14.3554 -0.00150862 14.0586 1.55146e-05 13.7524V6.74669C7.06285e-05 6.57783 0.0362176 6.41082 0.106158 6.25629C0.176098 6.10176 0.2783 5.9631 0.406265 5.84911L6.65626 0.319092C6.88669 0.113834 7.18769 0 7.50001 0C7.81232 0 8.11333 0.113834 8.34376 0.319092L14.5938 5.84911C14.7217 5.9631 14.8239 6.10176 14.8939 6.25629C14.9638 6.41082 14.9999 6.57783 15 6.74669Z" fill="white"/>
</svg>
