<svg width="15" height="15" viewBox="0 0 15 15" fill="none" xmlns="http://www.w3.org/2000/svg">
<path d="M7.90117 1.62182C8.67342 0.84233 9.72081 0.404419 10.8129 0.404419C11.9051 0.404419 12.9525 0.84233 13.7247 1.62182C14.497 2.40131 14.9308 3.45852 14.9308 4.56088C14.9308 5.66324 14.497 6.72046 13.7247 7.49994L7.90117 13.3781C7.5188 13.764 7.06485 14.0702 6.56524 14.2791C6.06564 14.488 5.53017 14.5955 4.98941 14.5955C4.44864 14.5955 3.91317 14.488 3.41357 14.2791C2.91397 14.0702 2.46002 13.764 2.07764 13.3781C1.3054 12.5986 0.871552 11.5414 0.871552 10.439C0.871552 9.33664 1.3054 8.27943 2.07764 7.49994L7.90117 1.62182ZM10.3976 9.17907L12.8918 6.66157C13.4394 6.10406 13.746 5.35029 13.7444 4.56518C13.7428 3.78007 13.4332 3.02756 12.8833 2.47233C12.3333 1.91709 11.5879 1.60434 10.8101 1.60251C10.0323 1.60068 9.28542 1.90993 8.73294 2.46257L6.23882 4.98007L10.3976 9.17907ZM7.72941 10.8891C7.83971 10.7776 7.90161 10.6264 7.9015 10.4689C7.90139 10.3113 7.83927 10.1602 7.72882 10.0489C7.61837 9.93758 7.46862 9.8751 7.31252 9.87521C7.15643 9.87532 7.00677 9.93801 6.89647 10.0495L5.13176 11.8308C5.02146 11.9422 4.95956 12.0934 4.95967 12.251C4.95978 12.4085 5.02189 12.5596 5.13235 12.6709C5.24281 12.7822 5.39255 12.8447 5.54865 12.8446C5.70474 12.8445 5.8544 12.7818 5.9647 12.6703L7.72941 10.8891Z" fill="white"/>
</svg>
