<svg width="22" height="21" viewBox="0 0 22 21" fill="none" xmlns="http://www.w3.org/2000/svg">
<path d="M19.1444 16.7131C19.6403 15.9105 19.9192 14.9723 19.8572 13.9403C19.7229 11.6992 17.9564 9.802 15.756 9.56225C15.1045 9.48578 14.4444 9.54926 13.819 9.74851C13.1936 9.94777 12.6171 10.2783 12.1272 10.7184C11.6374 11.1585 11.2455 11.6981 10.9771 12.3019C10.7087 12.9057 10.5699 13.56 10.5699 14.2218C10.5699 16.8174 12.6464 18.9126 15.2084 18.9126C16.1175 18.9126 16.9646 18.6416 17.6775 18.1829L20.1672 20.6951C20.5701 21.1016 21.2312 21.1016 21.6341 20.6951C22.037 20.2886 22.037 19.6214 21.6341 19.2149L19.1444 16.7131ZM15.2188 16.8278C14.5338 16.8278 13.8769 16.5532 13.3925 16.0645C12.9082 15.5758 12.6361 14.9129 12.6361 14.2218C12.6361 13.5306 12.9082 12.8678 13.3925 12.3791C13.8769 11.8903 14.5338 11.6158 15.2188 11.6158C15.9037 11.6158 16.5606 11.8903 17.045 12.3791C17.5293 12.8678 17.8014 13.5306 17.8014 14.2218C17.8014 14.9129 17.5293 15.5758 17.045 16.0645C16.5606 16.5532 15.9037 16.8278 15.2188 16.8278ZM14.8469 7.96737C14.0824 7.98822 13.3489 8.15501 12.6774 8.43645L12.1092 7.57126L8.92736 12.7937C8.84235 12.9336 8.72581 13.0512 8.58723 13.1371C8.44865 13.2229 8.29195 13.2745 8.12986 13.2878C7.96777 13.301 7.80488 13.2754 7.65445 13.2131C7.50401 13.1508 7.37028 13.0535 7.26412 12.9292L5.07402 10.3545L1.91283 15.4622C1.59258 15.973 0.91075 16.1085 0.425207 15.7541C-0.00868159 15.431 -0.13265 14.8264 0.156609 14.3573L4.06161 8.05077C4.43352 7.4566 5.2703 7.39405 5.72485 7.92568L7.90463 10.49L11.1898 5.10077C11.2801 4.95183 11.4062 4.82829 11.5564 4.74157C11.7066 4.65485 11.876 4.60775 12.0491 4.60463C12.2221 4.60151 12.3931 4.64248 12.5463 4.72373C12.6994 4.80499 12.8298 4.92391 12.9253 5.0695L14.8469 7.96737V7.96737ZM17.5225 8.48857C16.8613 8.1967 16.1485 8.01949 15.4047 7.9778L20.0948 0.482931C20.4151 -0.0278459 21.0969 -0.152934 21.5721 0.201482C22.0163 0.524627 22.13 1.13964 21.8407 1.5983L17.5225 8.48857V8.48857Z" fill="white"/>
</svg>
