<svg width="18" height="18" viewBox="0 0 18 18" fill="none" xmlns="http://www.w3.org/2000/svg">
<path d="M13.375 0.875H4.625C2.55393 0.875 0.875 2.55393 0.875 4.625V13.375C0.875 15.4461 2.55393 17.125 4.625 17.125H13.375C15.4461 17.125 17.125 15.4461 17.125 13.375V4.625C17.125 2.55393 15.4461 0.875 13.375 0.875Z" stroke="white" stroke-width="1.2" stroke-linejoin="round"/>
<path d="M14.193 4.92029C13.2375 4.04998 11.5086 2.91248 9 2.91248C6.49141 2.91248 4.7625 4.04998 3.80703 4.92029C3.54746 5.15674 3.38991 5.48478 3.3676 5.83519C3.3453 6.1856 3.46 6.53096 3.6875 6.79841L4.98906 8.33005C5.14729 8.51541 5.36674 8.63788 5.60757 8.67523C5.8484 8.71257 6.09463 8.66231 6.30156 8.53357C6.92344 8.14958 7.89961 7.68826 9.00078 7.68826C10.102 7.68826 11.0781 8.14958 11.7 8.53357C11.9069 8.66231 12.1532 8.71257 12.394 8.67523C12.6348 8.63788 12.8543 8.51541 13.0125 8.33005L14.3125 6.79841C14.54 6.53096 14.6547 6.1856 14.6324 5.83519C14.6101 5.48478 14.4525 5.15674 14.193 4.92029V4.92029Z" stroke="white" stroke-width="1.2" stroke-linejoin="round"/>
</svg>
