<svg width="25" height="25" viewBox="0 0 25 25" fill="none" xmlns="http://www.w3.org/2000/svg">
<path d="M18.6923 1H6.30769C3.37633 1 1 3.37633 1 6.30769V18.6923C1 21.6237 3.37633 24 6.30769 24H18.6923C21.6237 24 24 21.6237 24 18.6923V6.30769C24 3.37633 21.6237 1 18.6923 1Z" stroke="white" stroke-width="1.5" stroke-linejoin="round"/>
<path d="M19.751 7.57776C18.4169 6.3007 16.0028 4.63158 12.5 4.63158C8.99721 4.63158 6.58311 6.3007 5.24898 7.57776C4.88654 7.92472 4.66654 8.40607 4.6354 8.92025C4.60426 9.43442 4.76442 9.94121 5.08208 10.3336L6.89947 12.5811C7.1204 12.8531 7.42682 13.0328 7.7631 13.0876C8.09937 13.1424 8.44319 13.0687 8.73213 12.8797C9.60046 12.3163 10.9635 11.6394 12.5011 11.6394C14.0387 11.6394 15.4017 12.3163 16.27 12.8797C16.559 13.0687 16.9028 13.1424 17.2391 13.0876C17.5754 13.0328 17.8818 12.8531 18.1027 12.5811L19.9179 10.3336C20.2356 9.94121 20.3957 9.43442 20.3646 8.92025C20.3335 8.40607 20.1135 7.92472 19.751 7.57776Z" stroke="white" stroke-width="1.5" stroke-linejoin="round"/>
</svg>
