<?xml version="1.0" standalone="no"?>
<!DOCTYPE svg PUBLIC "-//W3C//DTD SVG 20010904//EN"
 "http://www.w3.org/TR/2001/REC-SVG-20010904/DTD/svg10.dtd">
<svg version="1.0" xmlns="http://www.w3.org/2000/svg"
 width="400.000000pt" height="400.000000pt" viewBox="0 0 400.000000 400.000000"
 preserveAspectRatio="xMidYMid meet">
<metadata>
Created by potrace 1.14, written by Peter Selinger 2001-2017
</metadata>
<g transform="translate(0.000000,400.000000) scale(0.100000,-0.100000)"
fill="#000000" stroke="none">
<path d="M470 3984 c-220 -47 -408 -237 -455 -459 -12 -60 -15 -285 -15 -1531
0 -1422 1 -1463 20 -1538 29 -113 73 -190 160 -277 55 -56 95 -86 150 -113
142 -69 57 -66 1676 -66 1422 0 1463 1 1538 20 113 29 190 73 277 160 56 55
86 95 113 150 69 142 66 57 66 1676 0 1422 -1 1463 -20 1538 -28 112 -73 189
-160 277 -87 87 -182 140 -295 164 -102 21 -2955 21 -3055 -1z m917 -1180 c59
-28 147 -119 140 -143 -3 -9 -31 -74 -62 -146 -51 -116 -211 -518 -345 -865
-27 -69 -51 -142 -55 -162 l-7 -38 38 0 c22 0 71 7 109 16 146 32 252 52 307
58 56 6 58 5 72 -22 24 -47 39 -119 32 -157 l-7 -36 -87 7 c-87 6 -202 -2
-429 -33 l-122 -16 -36 24 c-20 13 -56 50 -80 82 l-44 58 31 67 c16 37 41 92
55 122 57 125 179 447 238 625 55 167 131 448 151 558 7 43 12 43 101 1z
m1530 -44 c46 -21 86 -45 89 -53 3 -8 -3 -32 -14 -54 -49 -95 -119 -335 -157
-533 -43 -226 -57 -360 -62 -599 l-6 -243 -39 6 c-58 9 -148 43 -171 63 -19
17 -19 26 -13 218 4 110 12 242 19 293 11 81 11 93 -3 96 -8 3 -101 8 -205 12
l-191 7 -58 -119 c-67 -137 -139 -346 -156 -454 -6 -41 -14 -85 -16 -97 l-4
-23 -52 20 c-68 26 -98 55 -98 96 0 56 58 202 156 393 52 101 94 185 94 187 0
2 -31 4 -70 4 -38 0 -70 4 -70 9 0 13 57 37 131 56 64 16 67 18 100 73 137
226 398 514 567 624 34 22 62 47 62 56 0 23 71 7 167 -38z"/>
<path d="M2634 2551 c-60 -39 -167 -145 -241 -236 -36 -45 -139 -191 -157
-222 -6 -10 31 -12 176 -6 105 3 186 10 190 16 3 6 9 30 13 54 3 24 26 125 51
226 24 100 44 188 44 195 0 19 -13 15 -76 -27z"/>
</g>
</svg>
