<?xml version="1.0" standalone="no"?>
<!DOCTYPE svg PUBLIC "-//W3C//DTD SVG 20010904//EN"
 "http://www.w3.org/TR/2001/REC-SVG-20010904/DTD/svg10.dtd">
<svg version="1.0" xmlns="http://www.w3.org/2000/svg"
 width="400.000000pt" height="400.000000pt" viewBox="0 0 400.000000 400.000000"
 preserveAspectRatio="xMidYMid meet">
<metadata>
Created by potrace 1.14, written by Peter Selinger 2001-2017
</metadata>
<g transform="translate(0.000000,400.000000) scale(0.100000,-0.100000)"
fill="#000000" stroke="none">
<path d="M470 3984 c-220 -47 -408 -237 -455 -459 -12 -60 -15 -285 -15 -1531
0 -1422 1 -1463 20 -1538 29 -113 73 -190 160 -277 55 -56 95 -86 150 -113
142 -69 57 -66 1676 -66 1422 0 1463 1 1538 20 113 29 190 73 277 160 56 55
86 95 113 150 69 142 66 57 66 1676 0 1422 -1 1463 -20 1538 -28 112 -73 189
-160 277 -87 87 -182 140 -295 164 -102 21 -2955 21 -3055 -1z m1724 -895
c320 -60 594 -115 609 -121 15 -6 32 -18 36 -27 7 -13 311 -882 382 -1091 31
-92 29 -98 -74 -218 -51 -59 -225 -260 -386 -447 -161 -187 -304 -350 -318
-362 -30 -28 -61 -29 -189 -3 -54 10 -315 60 -579 111 -264 50 -488 95 -497
100 -10 5 -22 18 -28 28 -21 39 -400 1145 -400 1166 0 13 12 38 27 57 118 142
785 907 795 911 24 10 41 7 622 -104z"/>
<path d="M1922 2594 c-49 -25 -75 -69 -80 -133 -2 -43 2 -63 17 -89 62 -97
211 -97 271 0 39 65 18 166 -43 210 -40 29 -121 34 -165 12z"/>
<path d="M2391 2521 c-25 -23 -31 -37 -31 -69 0 -92 102 -136 169 -73 25 23
31 37 31 69 0 92 -102 136 -169 73z"/>
<path d="M1490 2500 c-11 -11 -20 -31 -20 -45 0 -14 9 -34 20 -45 11 -11 31
-20 45 -20 14 0 34 9 45 20 11 11 20 31 20 45 0 14 -9 34 -20 45 -11 11 -31
20 -45 20 -14 0 -34 -9 -45 -20z"/>
<path d="M1477 2146 c-48 -18 -76 -42 -93 -83 -43 -100 21 -208 129 -220 37
-5 54 -1 90 20 121 71 97 249 -38 286 -48 13 -41 13 -88 -3z"/>
<path d="M2417 2146 c-71 -26 -107 -76 -107 -148 0 -93 73 -162 163 -155 54 5
91 27 125 78 20 28 23 43 20 87 -9 105 -106 172 -201 138z"/>
<path d="M1914 1675 c-98 -58 -99 -206 -3 -264 53 -33 95 -35 147 -9 60 30 92
77 92 136 0 126 -129 201 -236 137z"/>
<path d="M1481 1636 c-68 -38 -66 -152 4 -184 75 -34 155 13 155 93 0 81 -87
131 -159 91z"/>
<path d="M2420 1590 c-11 -11 -20 -31 -20 -45 0 -14 9 -34 20 -45 11 -11 31
-20 45 -20 14 0 34 9 45 20 11 11 20 31 20 45 0 14 -9 34 -20 45 -11 11 -31
20 -45 20 -14 0 -34 -9 -45 -20z"/>
</g>
</svg>
